<svg height="384pt" viewBox="0 0 384 384.00063" width="384pt" xmlns="http://www.w3.org/2000/svg"><path d="m35.824219 303.472656-.375.457032 8.3125 10.183593c2.3125 2.832031 4.703125 5.582031 7.132812 8.191407 1.25 1.34375 2.503907 2.679687 3.410157 3.503906l.777343.769531c2.046875 2.046875 4.101563 4.09375 6.285157 6.199219 1.800781 1.710937 3.679687 3.351562 5.785156 5.167968l.847656.695313c.664062.496094 1.289062 1.015625 1.929688 1.550781l1.222656 1.007813c2.65625 2.203125 5.3125 4.21875 7.648437 5.839843 3.070313 2.304688 6.441407 4.601563 10.253907 7.027344l-.398438.160156 3.265625 1.628907c1.109375.679687 2.207031 1.359375 3.40625 2.074219 3.375 1.957031 6.761719 3.816406 9.753906 5.261718 1.160157.609375 2.398438 1.226563 3.636719 1.832032l2.296875 1.113281c1.359375.617187 2.738281 1.144531 4.097656 1.742187 1.34375.59375 2.695313 1.167969 4.0625 1.738282.558594.230468 1.105469.488281 1.664063.710937l3.28125 1.832031h1.382812c.007813 0 .023438.007813.03125.007813l2.570313.96875.085937-.039063c.753906.261719 1.503906.542969 2.25.789063.886719.296875 1.800782.554687 2.695313.84375 1.191406.382812 2.382812.757812 3.582031 1.117187.34375.105469.679688.226563 1.027344.320313.8125.296875 1.375.433593 1.460937.449219 1.570313.464843 3.089844.863281 4.539063 1.230468.636718.167969 1.285156.304688 1.925781.464844.183594.039062.417969.105469.601563.144531.078124.023438.160156.03125.238281.046875 5.503906 1.34375 11.089843 2.480469 16.761719 3.335938.398437.066406.800781.152344 1.199218.214844l2.121094.265624c1.183594.144532 2.359375.265626 3.542969.398438 1.054687.121094 2.09375.257812 3.160156.355469.152344.015625.3125.039062.472656.054687 2.742188.253906 5.453125.496094 7.886719.582032 3.433594.1875 6.871094.289062 10.34375.289062 2.878906 0 5.65625-.078125 8.34375-.207031 1.113281-.046875 2.207031-.113281 3.3125-.175781 2.175781-.121094 4.441406-.296876 6.816406-.519532.589844-.058594 1.183594-.105468 1.777344-.167968.445312-.050782.839844-.074219 1.308594-.128907l2.90625-.34375c2.472656-.28125 5.046875-.664062 6.902344-1.03125.640624-.097656 1.28125-.265625 1.921874-.371093 2.304688-.40625 4.605469-.820313 6.878907-1.308594.023437-.007813.054687-.007813.082031-.015625 1.789062-.347657 3.636719-.769531 5.308594-1.167969.769531-.179688 1.523437-.402344 2.289062-.601562.046875-.015626.105469-.023438.152344-.039063 1.207031-.3125 2.417969-.609375 3.601562-.9375l3.664063-1.046875c.621094-.191406 1.132813-.375 1.742187-.578125.023438-.007813.039063-.015625.066407-.023437 1.621093-.511719 3.269531-1.03125 4.660156-1.527344l2.65625-.832032c3.167969-1.152343 6.335937-2.382812 9.144531-3.582031.359375-.144531.714844-.328125 1.082032-.480469.09375-.042968.183593-.089843.277343-.128906 2.769531-1.160156 5.539063-2.390625 8.234375-3.664062 3.167969-1.496094 6.238282-3.152344 9.28125-4.808594 2.703125-1.464844 5.261719-2.992188 7.8125-4.535156l2.976563-1.839844c2.015625-1.320312 3.984375-2.609375 5.953125-4 .871094-.5625 1.808594-1.191406 2.519531-1.738281 1.839844-1.34375 3.6875-2.703125 5.496094-4.101563l1.640625-1.234375c2.488281-1.964843 4.96875-4.023437 7.359375-6.070312l2.265625-1.945313.109375-.207031c1.832031-1.648437 3.632812-3.382813 5.503906-5.183594 2.449219-2.351562 4.882813-4.878906 7.257813-7.433593 2.351562-2.527344 4.632812-5.152344 6.816406-7.765626l8.503906-10.210937-.464844-.558594c22.527344-31.464843 35.839844-69.945312 35.839844-111.488281s-13.3125-80.023438-35.824219-111.480469l.464844-.558593-8.503906-10.207032c-2.175781-2.617187-4.464844-5.234375-6.832031-7.792968-2.296876-2.457032-4.65625-4.832032-7.359376-7.519532-1.792968-1.710937-3.570312-3.425781-5.394531-5.074218l-2.375-2.152344c-2.390625-2.046875-4.871093-4.109375-7.359375-6.070313l-1.640625-1.230469c-1.800781-1.402343-3.617187-2.738281-5.335937-3.992187-.855469-.640625-1.800782-1.28125-2.679688-1.839844-1.96875-1.394531-3.9375-2.679687-5.953125-4l-2.640625-1.730469-.335937-.109374c-2.542969-1.546876-5.109375-3.074219-7.78125-4.523438-3.074219-1.671875-6.152344-3.335938-9.3125-4.820312-3.144531-1.488282-6.375-2.960938-9.3125-4.152344-3.089844-1.328125-6.246094-2.5625-9.425781-3.707032l-2.351563-.726562c-2.230469-.800781-4.460937-1.511719-7.109375-2.328125l-3.378906-.96875c-1.773438-.503906-3.636719-1.007813-5.503906-1.445313l-2.214844-.539062c-1.054688-.238281-2.144532-.488281-3.183594-.6875l-1.542969-.503906h-.777343c-1.71875-.382813-3.488282-.710938-5.238282-1l-1.121094-.160156c-2.472656-.472657-5.046874-.855469-7.0625-1.078126l-3.953124-.472656c-.359376-.039062-.710938-.0625-1.074219-.097656-.292969-.03125-.597657-.054688-.894531-.078125-2.550782-.242187-5.070313-.441406-7.40625-.570313-1.019532-.0625-2.042969-.117187-3.066407-.167968-6.109375-.308594-12.480469-.2695315-17.847656.027344-1.6875.078124-3.367187.230468-5.046875.359374-1.28125.101563-2.5625.152344-3.832031.277344-.136719.019532-.28125.035156-.417969.050782-1.175781.109374-2.335938.261718-3.503906.398437-1.183594.136719-2.359375.25-3.542969.402344l-1.695313.191406c-.433593.0625-.886718.160156-1.320312.230469-4.070312.617187-8.089844 1.382812-12.070312 2.25l-.160157.03125c-1.410156.261718-2.730469.582031-4.304687.992187-.480469.101563-.945313.230469-1.425782.34375-.511718.128907-1.023437.238281-1.527343.367188-1.464844.367187-2.871094.734375-4.070313 1.097656-.394531.101563-1.082031.277344-1.945312.582031l-.382813.105469c-2.503906.679687-4.921875 1.445313-6.929687 2.175781-.769532.253906-1.519532.535156-2.289063.800782l-.09375-.042969-2.746093 1.03125c-.015626.011719-.03125.011719-.046876.019531l-1.488281.03125-5.375 2.726562c-1.121093.464844-2.226562.960938-3.335937 1.449219-1.359375.597657-2.746094 1.136719-4.097656 1.742188l-2.296876 1.113281c-1.238281.617188-2.484374 1.222656-3.046874 1.542969-2.039063.96875-4.070313 2.03125-5.597657 2.921875-1.3125.695312-2.691406 1.445312-4.019531 2.214844l-3.820312 2.289062c-.074219.039062-.144532.085938-.210938.136719l-3.367188 1.703125.390626.152344c-.613282.390624-1.246094.765624-1.863282 1.167968l-1.605468 1.085938-.050782.050781c-2.214844 1.46875-4.3125 2.941406-5.984375 4.191406-.496093.328125-.992187.6875-1.757812 1.253907-1.808594 1.265624-3.59375 2.601562-5.320313 4.082031-.472656.359375-.871094.671875-1.191406.933593l-3.832031 3.167969c-2.058594 1.6875-4.128907 3.480469-6.367188 5.625l-2.433593 2.359375c-1.558594 1.394532-3.039063 2.863282-4.511719 4.488282-1.128907 1.082031-2.175781 2.199218-3.191407 3.304687-2.488281 2.664063-4.871093 5.414063-7.183593 8.246094l-8.3125 10.1875.375.453125c-22.519531 31.457031-35.824219 69.929687-35.824219 111.472656s13.304688 80.015625 35.824219 111.472656zm140.289062-270.664062c5.230469-.519532 10.527344-.808594 15.886719-.808594 10.894531 0 21.535156 1.113281 31.824219 3.199219.183593.042969.375.066406.550781.113281l1.875.617188h.535156c30.710938 6.839843 58.101563 22.480468 79.390625 44.199218-17.765625 18.015625-39.679687 31.679688-63.558593 39.679688l-.128907-.40625-.664062.207031c-.207031-.511719-.472657-1.007813-.6875-1.519531-1.257813-2.992188-2.59375-5.945313-4-8.875-.480469-1-.9375-2.015625-1.441407-3.007813-1.917968-3.804687-3.941406-7.558593-6.101562-11.230469-.328125-.558593-.699219-1.097656-1.035156-1.648437-1.871094-3.101563-3.832032-6.144531-5.871094-9.136719-.742188-1.085937-1.503906-2.152344-2.269531-3.222656-1.824219-2.558594-3.714844-5.0625-5.65625-7.527344-.753907-.953125-1.488281-1.921875-2.257813-2.855468-2.6875-3.28125-5.464844-6.496094-8.359375-9.59375-.28125-.296876-.578125-.574219-.863281-.871094-2.648438-2.792969-5.386719-5.496094-8.183594-8.128906-.960937-.902344-1.9375-1.777344-2.921875-2.65625-2.296875-2.070313-4.640625-4.078126-7.03125-6.039063-1-.816406-1.992187-1.648437-3.007812-2.449219-3.289063-2.582031-6.640625-5.09375-10.097657-7.464844 1.007813-.125 1.984376-.351562 3-.453124.359376-.042969.714844-.089844 1.074219-.121094zm48.621094 315.800781c-.300781.070313-.621094.128906-.925781.199219-5.046875 1.023437-10.167969 1.816406-15.375 2.351562-.082032.007813-.167969.015625-.25.023438-5.320313.535156-10.71875.816406-16.183594.816406-5.375 0-10.6875-.289062-15.925781-.808594-.328125-.03125-.664063-.070312-.992188-.109375-1.035156-.113281-2.019531-.335937-3.042969-.464843 3.457032-2.367188 6.808594-4.878907 10.097657-7.464844 1.015625-.800782 2.007812-1.632813 3.007812-2.449219 2.390625-1.957031 4.734375-3.964844 7.03125-6.039063.976563-.878906 1.960938-1.75 2.921875-2.65625 2.808594-2.632812 5.542969-5.335937 8.183594-8.128906.277344-.292968.582031-.574218.863281-.871094 2.894531-3.09375 5.664063-6.3125 8.359375-9.589843.769532-.9375 1.503906-1.90625 2.257813-2.855469 1.941406-2.464844 3.832031-4.976562 5.65625-7.53125.765625-1.070312 1.527343-2.144531 2.269531-3.222656 2.039062-2.992188 4-6.03125 5.871094-9.136719.335937-.550781.707031-1.09375 1.035156-1.648437 2.167969-3.671876 4.183594-7.414063 6.101562-11.230469.503907-.992188.960938-2.007813 1.441407-3.007813 1.40625-2.921875 2.742187-5.871094 4-8.871094.214843-.511718.472656-1.007812.6875-1.519531l.664062.207031.128907-.410156c23.878906 8 45.792968 21.664063 63.558593 39.679688-21.757812 22.21875-49.886719 38.144531-81.441406 44.738281zm-14.871094-90.90625c-1.726562 3.808594-3.632812 7.53125-5.648437 11.175781-.390625.714844-.773438 1.441406-1.175782 2.144532-2.117187 3.695312-4.382812 7.304687-6.789062 10.816406-.488281.722656-1 1.425781-1.503906 2.128906-2.539063 3.59375-5.179688 7.113281-8 10.480469-.074219.078125-.144532.160156-.21875.246093-2.800782 3.328126-5.757813 6.511719-8.816406 9.601563-.566407.574219-1.125 1.160156-1.703126 1.726563-3.054687 3.007812-6.230468 5.890624-9.519531 8.648437-.617187.519531-1.257812 1.023437-1.878906 1.527344-3.441406 2.800781-6.960937 5.503906-10.625 8.015625-.015625.011718-.03125.027344-.046875.035156-3.671875 2.511719-7.488281 4.832031-11.359375 7.03125-.722656.40625-1.433594.824219-2.152344 1.222656-3.792969 2.082032-7.671875 4.007813-11.632812 5.777344-.234375.101562-.472657.199219-.703125.304688-3.929688-1.722657-7.792969-3.554688-11.546875-5.570313-.445313-.238281-.894531-.480469-1.335938-.71875-13.839843-7.609375-26.40625-17.222656-37.382812-28.425781 34.289062-34.855469 83.0625-52.40625 132.375-46.832032-.109375.21875-.230469.441407-.335938.664063zm-107.464843-198.191406c.113281-.070313.226562-.152344.335937-.230469 7.960937-5.367188 16.457031-9.976562 25.347656-13.871094.246094.109375.511719.207032.757813.320313 3.9375 1.757812 7.792968 3.671875 11.558594 5.734375.746093.40625 1.472656.832031 2.21875 1.253906 3.863281 2.203125 7.664062 4.507812 11.328124 7.011719.023438.015625.046876.039062.078126.054687 3.65625 2.503906 7.167968 5.199219 10.59375 7.992188.632812.511718 1.261718 1.015625 1.886718 1.535156 3.289063 2.761719 6.464844 5.640625 9.519532 8.648438.578124.558593 1.128906 1.144531 1.695312 1.71875 3.066406 3.097656 6.035156 6.289062 8.832031 9.617187.066407.078125.136719.152344.210938.230469 2.824219 3.378906 5.460937 6.898437 8.007812 10.488281.496094.703125 1.007813 1.410156 1.496094 2.121094 2.398437 3.511719 4.671875 7.121093 6.789063 10.824219.410156.710937.785156 1.433593 1.175781 2.144531 2.019531 3.65625 3.921875 7.367187 5.648437 11.175781.105469.222656.21875.4375.320313.671875-49.328125 5.609375-98.085938-11.984375-132.375-46.839844 7.480469-7.632812 15.6875-14.570312 24.574219-20.601562zm89.601562 100.488281c9.425781 0 18.878906-.773438 28.273438-2.160156 2.4375 11.183594 3.726562 22.617187 3.726562 34.160156s-1.289062 22.976562-3.726562 34.160156c-9.394532-1.382812-18.847657-2.160156-28.273438-2.160156-50.566406 0-98.464844 19.738281-134.265625 54.71875-16.214844-25.015625-25.734375-54.75-25.734375-86.71875s9.519531-61.703125 25.734375-86.71875c35.800781 34.984375 83.699219 54.71875 134.265625 54.71875zm134.191406 118.839844c-20.960937-20.414063-46.367187-35.984375-74.039062-45.152344l.273437-.863281-.832031-.191407c2.871094-13.304687 4.40625-26.902343 4.40625-40.632812 0-13.726562-1.535156-27.328125-4.40625-40.640625l.832031-.191406-.273437-.863281c27.671875-9.167969 53.078125-24.734376 74.039062-45.152344 16.257813 25.046875 25.808594 54.832031 25.808594 86.847656s-9.550781 61.800781-25.808594 86.839844zm0 0"/></svg>